# xmcd
#
# Track frame offsets:
#	150
#	17384
#	35930
#	50559
#	69528
#	88745
#	108801
#	123403
#	143512
#	163706
#	181620
#	201186
#	216590
#	233244
#
# Disc length: 3296 seconds
#
# Revision: 2
# Processed by: cddbd v1.4PL0 Copyright (c) Steve Scherf et al.
# Submitted via: EZCDDA 4.3.2
#
DISCID=c20cde0e
DTITLE=Acda&de Munnik - Naar huis
DYEAR=1900
DGENRE=
TTITLE0=Track 1  Het regent zonnestralen
TTITLE1=Track 2  Niet of nooit geweest
TTITLE2=Track 3  Naar huis
TTITLE3=Track 4  Laat me slapen
TTITLE4=Track 5  Mis ik jou
TTITLE5=Track 6  Slaap zacht, Elizabeth
TTITLE6=Track 7  Zwerf,on
TTITLE7=Track 8  Zitten voor de blues
TTITLE8=Track 9  De kapitein
TTITLE9=Track 10  Wennen aan jou
TTITLE10=Track 11  Brussel moeten heten
TTITLE11=Track 12  Wees niet bang
TTITLE12=Track 13  Eerste Helmersstraat
TTITLE13=Track 14  Bij haar zijn
EXTD=
EXTT0=
EXTT1=
EXTT2=
EXTT3=
EXTT4=
EXTT5=
EXTT6=
EXTT7=
EXTT8=
EXTT9=
EXTT10=
EXTT11=
EXTT12=
EXTT13=
PLAYORDER=
